<?xml version="1.0" encoding="utf-8"?>
<!-- Generator: Adobe Illustrator 24.0.2, SVG Export Plug-In . SVG Version: 6.00 Build 0)  -->
<svg version="1.1" id="圖層_1" xmlns="http://www.w3.org/2000/svg" xmlns:xlink="http://www.w3.org/1999/xlink" x="0px" y="0px"
	 viewBox="0 0 131.2 37.7" style="enable-background:new 0 0 131.2 37.7;" xml:space="preserve">
<style type="text/css">
	.st0{fill:#004EA2;}
	.st1{fill:#FFFFFF;}
</style>
<g>
	<path class="st0" d="M37.7,18.8c0,10.4-8.4,18.8-18.8,18.8C8.4,37.7,0,29.3,0,18.8C0,8.4,8.4,0,18.8,0S37.7,8.4,37.7,18.8"/>
	<polygon class="st1" points="24.7,9.5 18.4,15.5 12.1,9.5 2.4,19.2 10.6,27.4 10.6,34.2 16.3,34.2 16.3,25.4 10.4,19.5 10,19.1 
		11.9,17.4 18.4,23.9 18.4,23.9 18.4,23.9 18.4,23.9 18.4,23.9 24.9,17.4 26.7,19.2 26.3,19.5 20.5,25.4 20.5,34.2 26.2,34.2 
		26.2,27.4 34.4,19.2 	"/>
	<path class="st1" d="M18.6,11.1c2.4,0,4.3-1.9,4.3-4.3c0-2.4-1.9-4.3-4.3-4.3c-2.4,0-4.3,1.9-4.3,4.3C14.2,9.1,16.2,11.1,18.6,11.1
		"/>
</g>
<g>
	<path d="M46.7,31.6l1.9-4.6h2.9v0.2h-0.2c-0.2,0-0.4,0-0.5,0.1c-0.1,0-0.2,0.1-0.2,0.2c0,0.1-0.1,0.3-0.1,0.6v4.6
		c0,0.4,0,0.6,0.1,0.7c0,0.1,0.1,0.2,0.2,0.2c0.1,0.1,0.3,0.1,0.5,0.1h0.2V34h-3.7v-0.2H48c0.2,0,0.4,0,0.5-0.1
		c0.1,0,0.2-0.1,0.2-0.2c0-0.1,0.1-0.3,0.1-0.7v-5.2L46.1,34H46l-2.7-6.4v4.9c0,0.3,0,0.6,0,0.6c0,0.2,0.1,0.3,0.3,0.4
		c0.1,0.1,0.4,0.2,0.7,0.2V34h-2.4v-0.2h0.1c0.2,0,0.3,0,0.4-0.1c0.1-0.1,0.2-0.1,0.3-0.2c0.1-0.1,0.1-0.2,0.2-0.4c0,0,0-0.2,0-0.5
		v-4.4c0-0.4,0-0.6-0.1-0.7c0-0.1-0.1-0.2-0.2-0.2c-0.1-0.1-0.3-0.1-0.5-0.1h-0.2V27h2.9L46.7,31.6z"/>
	<path d="M53.9,29.2V33c0,0.3,0,0.6,0.1,0.7c0.1,0.1,0.2,0.1,0.5,0.2V34h-2.6v-0.2c0.2,0,0.4-0.1,0.5-0.2c0.1-0.1,0.1-0.3,0.1-0.6
		v-2.8c0-0.3,0-0.6-0.1-0.7c-0.1-0.1-0.2-0.1-0.5-0.2v-0.2H53.9z M53.2,26.8c0.2,0,0.4,0.1,0.6,0.2c0.2,0.2,0.2,0.3,0.2,0.6
		c0,0.2-0.1,0.4-0.2,0.6c-0.2,0.2-0.3,0.2-0.6,0.2c-0.2,0-0.4-0.1-0.6-0.2c-0.2-0.2-0.2-0.3-0.2-0.6c0-0.2,0.1-0.4,0.2-0.6
		C52.8,26.9,52.9,26.8,53.2,26.8z"/>
	<path d="M56.9,29.2v0.6c0.2-0.3,0.5-0.5,0.7-0.6c0.2-0.1,0.5-0.2,0.7-0.2c0.3,0,0.6,0.1,0.8,0.3s0.3,0.4,0.4,0.7
		c0.1,0.2,0.1,0.6,0.1,1.1V33c0,0.4,0,0.6,0.1,0.7c0.1,0.1,0.2,0.1,0.4,0.2V34h-2.4v-0.2c0.2,0,0.3-0.1,0.4-0.2
		c0.1-0.1,0.1-0.3,0.1-0.6v-2.2c0-0.4,0-0.6,0-0.8c0-0.1-0.1-0.2-0.2-0.2c-0.1-0.1-0.2-0.1-0.2-0.1c-0.3,0-0.6,0.2-0.8,0.6V33
		c0,0.4,0,0.6,0.1,0.7c0.1,0.1,0.2,0.2,0.4,0.2V34H55v-0.2c0.2,0,0.3-0.1,0.4-0.2c0.1-0.1,0.1-0.3,0.1-0.7v-2.7c0-0.4,0-0.6-0.1-0.7
		c-0.1-0.1-0.2-0.1-0.4-0.2v-0.2H56.9z"/>
	<path d="M62.7,29.2V33c0,0.3,0,0.6,0.1,0.7c0.1,0.1,0.2,0.1,0.5,0.2V34h-2.6v-0.2c0.2,0,0.4-0.1,0.5-0.2c0.1-0.1,0.1-0.3,0.1-0.6
		v-2.8c0-0.3,0-0.6-0.1-0.7c-0.1-0.1-0.2-0.1-0.5-0.2v-0.2H62.7z M62,26.8c0.2,0,0.4,0.1,0.6,0.2c0.2,0.2,0.2,0.3,0.2,0.6
		c0,0.2-0.1,0.4-0.2,0.6c-0.2,0.2-0.3,0.2-0.6,0.2c-0.2,0-0.4-0.1-0.6-0.2c-0.2-0.2-0.2-0.3-0.2-0.6c0-0.2,0.1-0.4,0.2-0.6
		C61.6,26.9,61.8,26.8,62,26.8z"/>
	<path d="M66.8,29l0.1,1.7h-0.2c-0.2-0.5-0.4-0.8-0.7-1c-0.2-0.2-0.5-0.3-0.7-0.3c-0.1,0-0.3,0-0.4,0.1c-0.1,0.1-0.2,0.2-0.2,0.3
		c0,0.1,0,0.2,0.1,0.3c0.1,0.1,0.4,0.4,0.9,0.7c0.5,0.3,0.8,0.6,1,0.9c0.2,0.2,0.2,0.5,0.2,0.8c0,0.3-0.1,0.5-0.2,0.8
		c-0.1,0.3-0.3,0.5-0.6,0.6c-0.2,0.1-0.5,0.2-0.8,0.2c-0.2,0-0.5-0.1-0.9-0.2c-0.1,0-0.2-0.1-0.2-0.1c-0.1,0-0.2,0.1-0.3,0.3H64
		l-0.1-1.7h0.2c0.2,0.5,0.4,0.8,0.6,1c0.3,0.2,0.5,0.3,0.8,0.3c0.2,0,0.3-0.1,0.4-0.2c0.1-0.1,0.2-0.2,0.2-0.4
		c0-0.2-0.1-0.3-0.2-0.4c-0.1-0.1-0.3-0.3-0.7-0.5c-0.5-0.4-0.9-0.6-1-0.8c-0.2-0.3-0.3-0.6-0.3-0.9c0-0.4,0.1-0.7,0.4-1
		c0.3-0.3,0.6-0.5,1.1-0.5c0.3,0,0.5,0.1,0.8,0.2c0.1,0.1,0.2,0.1,0.2,0.1c0.1,0,0.1,0,0.1,0c0,0,0.1-0.1,0.2-0.2H66.8z"/>
	<path d="M69.8,27.4v1.8H71v0.5h-1.2v3c0,0.3,0,0.5,0,0.5c0,0.1,0.1,0.1,0.1,0.2c0.1,0.1,0.1,0.1,0.2,0.1c0.2,0,0.4-0.2,0.6-0.5
		l0.2,0.1c-0.3,0.7-0.7,1-1.4,1c-0.3,0-0.6-0.1-0.8-0.3c-0.2-0.2-0.3-0.4-0.4-0.6c0-0.1-0.1-0.4-0.1-1v-2.6h-0.6v-0.2
		c0.4-0.3,0.8-0.6,1.1-1c0.3-0.3,0.6-0.7,0.8-1.1H69.8z"/>
	<path d="M73.5,29.2v1.1c0.3-0.5,0.6-0.8,0.8-1c0.2-0.2,0.5-0.2,0.7-0.2c0.2,0,0.3,0.1,0.5,0.2c0.1,0.1,0.2,0.3,0.2,0.5
		c0,0.2-0.1,0.4-0.2,0.5c-0.1,0.1-0.2,0.2-0.4,0.2c-0.2,0-0.3-0.1-0.5-0.2c-0.1-0.1-0.2-0.2-0.2-0.2c0,0-0.1,0-0.1,0
		c-0.1,0-0.2,0-0.3,0.1c-0.1,0.1-0.2,0.3-0.3,0.5c-0.1,0.3-0.2,0.7-0.2,1.1v1.1l0,0.3c0,0.2,0,0.3,0,0.4c0,0.1,0.1,0.2,0.2,0.2
		c0.1,0,0.2,0.1,0.4,0.1V34h-2.6v-0.2c0.2,0,0.4-0.1,0.4-0.2c0.1-0.1,0.1-0.4,0.1-0.8v-2.7c0-0.3,0-0.5,0-0.5c0-0.1-0.1-0.2-0.1-0.2
		c-0.1,0-0.2-0.1-0.3-0.1v-0.2H73.5z"/>
	<path d="M78.4,34.2l-1.6-3.6c-0.2-0.5-0.4-0.9-0.5-1c-0.1-0.1-0.2-0.2-0.4-0.3v-0.2h2.6v0.2c-0.2,0-0.3,0-0.4,0.1
		C78,29.5,78,29.6,78,29.7c0,0.1,0.1,0.4,0.3,0.8l0.8,1.9l0.6-1.5c0.2-0.5,0.3-0.9,0.3-1.1c0-0.1,0-0.2-0.1-0.3
		c-0.1-0.1-0.2-0.1-0.4-0.1v-0.2H81v0.2c-0.2,0-0.3,0.1-0.4,0.2c-0.1,0.1-0.3,0.5-0.5,1.1l-1.4,3.6c-0.3,0.9-0.6,1.4-0.8,1.7
		c-0.2,0.3-0.5,0.4-0.9,0.4c-0.3,0-0.5-0.1-0.7-0.2c-0.2-0.2-0.3-0.4-0.3-0.6c0-0.2,0.1-0.4,0.2-0.5c0.1-0.1,0.3-0.2,0.5-0.2
		c0.2,0,0.3,0.1,0.4,0.2c0.1,0.1,0.2,0.3,0.2,0.5c0,0.1,0,0.2,0,0.3c0,0,0.1,0.1,0.1,0.1c0.1,0,0.2,0,0.3-0.2c0.1-0.1,0.3-0.5,0.5-1
		L78.4,34.2z"/>
	<path d="M95.2,29.7V33c0,0.3,0,0.5,0.1,0.6c0.1,0.1,0.3,0.2,0.6,0.2V34h-2.9v-0.2c0.2,0,0.4,0,0.5-0.1c0.1,0,0.2-0.1,0.2-0.2
		c0-0.1,0.1-0.3,0.1-0.5v-3.4h-0.7v-0.5h0.7v-0.4l0-0.2c0-0.5,0.2-0.9,0.5-1.2c0.4-0.3,0.9-0.5,1.5-0.5c0.4,0,0.7,0.1,0.9,0.2
		c0.2,0.2,0.3,0.3,0.3,0.5c0,0.2-0.1,0.3-0.2,0.4c-0.1,0.1-0.3,0.2-0.5,0.2c-0.2,0-0.3,0-0.4-0.1c-0.1-0.1-0.2-0.2-0.2-0.3
		c0,0,0-0.1,0-0.2c0-0.1,0-0.1,0-0.2c0-0.1,0-0.1-0.1-0.2c-0.1-0.1-0.1-0.1-0.2-0.1c-0.1,0-0.2,0-0.3,0.1c-0.1,0.1-0.1,0.2-0.1,0.4
		l0,0.9v0.6H96v0.5H95.2z"/>
	<path d="M108.3,31.6L108,34h-6.2v-0.2h0.2c0.2,0,0.4,0,0.5-0.1c0.1,0,0.2-0.1,0.2-0.2c0-0.1,0.1-0.3,0.1-0.7v-4.6
		c0-0.4,0-0.6-0.1-0.7c0-0.1-0.1-0.2-0.2-0.2c-0.1-0.1-0.3-0.1-0.5-0.1h-0.2V27h3.7v0.2h-0.3c-0.2,0-0.4,0-0.5,0.1
		c-0.1,0-0.2,0.1-0.2,0.2c0,0.1-0.1,0.3-0.1,0.7v4.5c0,0.4,0,0.6,0.1,0.7c0,0.1,0.1,0.2,0.2,0.2c0.1,0,0.3,0,0.6,0h0.6
		c0.4,0,0.7-0.1,0.9-0.2c0.2-0.1,0.5-0.3,0.6-0.6c0.2-0.3,0.4-0.7,0.5-1.3H108.3z"/>
	<path d="M111.7,33.3c-0.6,0.5-1.1,0.8-1.6,0.8c-0.3,0-0.5-0.1-0.7-0.3c-0.2-0.2-0.3-0.4-0.3-0.7c0-0.4,0.2-0.7,0.5-1
		c0.3-0.3,1-0.7,2.1-1.2v-0.5c0-0.4,0-0.6-0.1-0.7c0-0.1-0.1-0.2-0.2-0.2c-0.1-0.1-0.2-0.1-0.4-0.1c-0.2,0-0.4,0-0.6,0.1
		c-0.1,0.1-0.1,0.1-0.1,0.2c0,0.1,0,0.2,0.1,0.3c0.1,0.1,0.2,0.3,0.2,0.4c0,0.2-0.1,0.3-0.2,0.4c-0.1,0.1-0.3,0.2-0.5,0.2
		c-0.2,0-0.4-0.1-0.5-0.2c-0.1-0.1-0.2-0.3-0.2-0.5c0-0.2,0.1-0.5,0.3-0.7c0.2-0.2,0.5-0.4,0.8-0.5c0.4-0.1,0.7-0.2,1.1-0.2
		c0.5,0,0.8,0.1,1.1,0.3c0.3,0.2,0.4,0.4,0.5,0.6c0,0.1,0.1,0.5,0.1,1v1.9c0,0.2,0,0.4,0,0.4c0,0.1,0,0.1,0.1,0.1c0,0,0.1,0,0.1,0
		c0.1,0,0.2-0.1,0.3-0.2l0.2,0.1c-0.2,0.3-0.4,0.4-0.5,0.6c-0.2,0.1-0.4,0.2-0.6,0.2c-0.3,0-0.5-0.1-0.6-0.2
		C111.8,33.8,111.7,33.6,111.7,33.3z M111.7,32.9v-1.6c-0.4,0.2-0.7,0.5-0.9,0.8c-0.1,0.2-0.2,0.4-0.2,0.6c0,0.2,0.1,0.3,0.2,0.4
		c0.1,0.1,0.2,0.1,0.4,0.1C111.3,33.2,111.5,33.1,111.7,32.9z"/>
	<path d="M116.2,27v2.7c0.4-0.4,0.9-0.6,1.3-0.6c0.3,0,0.6,0.1,0.9,0.3c0.3,0.2,0.5,0.5,0.7,0.8c0.2,0.4,0.2,0.8,0.2,1.2
		c0,0.5-0.1,1-0.3,1.4c-0.2,0.4-0.5,0.8-0.8,1c-0.4,0.2-0.8,0.3-1.2,0.3c-0.3,0-0.5,0-0.7-0.1c-0.2-0.1-0.4-0.2-0.6-0.4l-0.8,0.5
		h-0.2V28c0-0.3,0-0.5,0-0.5c0-0.1-0.1-0.2-0.2-0.2c-0.1,0-0.2-0.1-0.4-0.1V27H116.2z M116.2,30.1v2.2c0,0.4,0,0.7,0,0.8
		c0,0.2,0.1,0.4,0.2,0.5c0.1,0.1,0.3,0.2,0.5,0.2c0.2,0,0.3,0,0.5-0.2c0.1-0.1,0.2-0.3,0.3-0.6c0.1-0.3,0.1-0.8,0.1-1.6
		c0-0.7-0.1-1.3-0.3-1.5c-0.1-0.2-0.3-0.3-0.5-0.3C116.8,29.6,116.5,29.8,116.2,30.1z"/>
	<path d="M122.5,29c0.4,0,0.8,0.1,1.2,0.3c0.4,0.2,0.6,0.5,0.8,0.9c0.2,0.4,0.3,0.8,0.3,1.3c0,0.7-0.2,1.3-0.5,1.7
		c-0.4,0.6-1,0.8-1.7,0.8c-0.7,0-1.3-0.3-1.7-0.8c-0.4-0.5-0.6-1.1-0.6-1.8c0-0.7,0.2-1.3,0.6-1.8C121.3,29.3,121.8,29,122.5,29z
		 M122.5,29.4c-0.2,0-0.3,0.1-0.5,0.2c-0.1,0.1-0.2,0.4-0.2,0.8c0,0.4-0.1,0.9-0.1,1.6c0,0.4,0,0.7,0.1,1c0,0.2,0.1,0.4,0.2,0.6
		c0.1,0.1,0.3,0.2,0.4,0.2c0.2,0,0.3,0,0.4-0.1c0.1-0.1,0.2-0.3,0.3-0.5c0.1-0.3,0.1-1,0.1-2c0-0.6,0-1-0.1-1.2
		c-0.1-0.2-0.2-0.4-0.3-0.5C122.8,29.4,122.7,29.4,122.5,29.4z"/>
	<path d="M127.5,29.2v1.1c0.3-0.5,0.6-0.8,0.8-1c0.2-0.2,0.5-0.2,0.7-0.2c0.2,0,0.3,0.1,0.5,0.2c0.1,0.1,0.2,0.3,0.2,0.5
		c0,0.2-0.1,0.4-0.2,0.5c-0.1,0.1-0.2,0.2-0.4,0.2c-0.2,0-0.3-0.1-0.5-0.2c-0.1-0.1-0.2-0.2-0.2-0.2c0,0-0.1,0-0.1,0
		c-0.1,0-0.2,0-0.3,0.1c-0.1,0.1-0.2,0.3-0.3,0.5c-0.1,0.3-0.2,0.7-0.2,1.1v1.1l0,0.3c0,0.2,0,0.3,0,0.4c0,0.1,0.1,0.2,0.2,0.2
		c0.1,0,0.2,0.1,0.4,0.1V34h-2.6v-0.2c0.2,0,0.4-0.1,0.4-0.2c0.1-0.1,0.1-0.4,0.1-0.8v-2.7c0-0.3,0-0.5,0-0.5c0-0.1-0.1-0.2-0.2-0.2
		c-0.1,0-0.2-0.1-0.3-0.1v-0.2H127.5z"/>
	<path d="M90.1,28.9c0.4,0,0.8,0.1,1.2,0.3c0.4,0.2,0.6,0.5,0.8,0.9c0.2,0.4,0.3,0.8,0.3,1.3c0,0.7-0.2,1.3-0.5,1.7
		c-0.4,0.6-1,0.8-1.7,0.8c-0.7,0-1.3-0.3-1.7-0.8c-0.4-0.5-0.6-1.1-0.6-1.8c0-0.7,0.2-1.3,0.6-1.8C88.8,29.1,89.4,28.9,90.1,28.9z
		 M90.1,29.3c-0.2,0-0.3,0.1-0.5,0.2c-0.1,0.1-0.2,0.4-0.2,0.8c0,0.4-0.1,0.9-0.1,1.6c0,0.4,0,0.7,0.1,1c0,0.2,0.1,0.4,0.2,0.6
		c0.1,0.1,0.3,0.2,0.4,0.2c0.2,0,0.3,0,0.4-0.1c0.1-0.1,0.2-0.3,0.3-0.5c0.1-0.3,0.1-1,0.1-2c0-0.6,0-1-0.1-1.2
		c-0.1-0.2-0.2-0.4-0.3-0.5C90.4,29.3,90.3,29.3,90.1,29.3z"/>
</g>
<g>
	<path d="M52.8,13c-2.2,0-4.3,0.2-6.3,0.6c-0.6,0-0.9,0.3-0.9,1c0,0.9-0.2,1.7-0.5,2.3c-0.2,0.5-0.4,0.7-0.7,0.5
		c-0.4-0.2-0.7-0.6-0.7-1.2c-0.2-1.4-0.3-2.7-0.1-3.9c0-0.1,0-0.2,0.1-0.2c0.1-0.1,0.1-0.2,0.1-0.2c-1.4,0.2-2.3,0-2.8-0.6
		c-0.4-0.9-0.3-1.3,0.2-1.3c0.7,0.1,1.5,0.1,2.4,0c3.2-0.6,4.8-1.9,4.6-4c-0.2-1.3,0.2-1.9,1.2-1.9c1.1,0,1.5,0.6,1.3,1.8
		c0,0.2-0.1,0.4-0.2,0.9c-0.3,1.1-0.3,1.7,0,1.8c0.3,0.2,0.8,0.3,1.5,0.5c0.8,0.2,1.4,0.4,1.8,0.6L54,9.7c0.2-0.2,0.6-0.4,1.2-0.4
		c1.5-0.1,2.5-0.9,3-2.6c0.2-0.8,0.3-1.6,0.1-2.3c-0.1-0.5,0.3-0.7,1.2-0.7c1,0.1,1.4,0.6,1.2,1.6c-0.1,0.7-0.1,1.2-0.1,1.5
		c0,0.2,0,0.4,0.1,0.4c0.8,0.5,2.1,1,3.9,1.5c0.9,0.3,2.1,0.6,3.7,0.9c0.4,0.1,0.3,0.4-0.2,1.1c-0.3,0.4-0.9,0.9-1.8,1.3
		C66.2,12,66.2,12,66.1,12c0,0.2,0,0.4-0.1,0.6v0.1c0,0.9,0,1.5-0.1,1.8c-0.1,1.2-0.3,2-0.7,2.4c-0.5,0.5-0.9,0.3-1.3-0.5
		c0-0.2,0-0.4,0-0.7c0.1-0.4,0.1-0.7,0-1c0-0.1,0-0.2,0-0.2c-0.1-0.6-0.3-0.9-0.7-1.1c-0.2-0.2-1.1-0.3-2.6-0.5
		c-2.8-0.2-4.4-0.2-5,0c0.2,0.4,0.3,0.9,0.1,1.3c0,0.2,0,0.3,0,0.4c0.3,0.1,0.9,0.1,1.7,0.1c0.6,0.1,1,0.1,1.2,0.1
		c0.3,0.2,0.6,0.2,0.9,0.1c0.2,0,0.4,0,0.7-0.1c0.3-0.1,0.6-0.1,0.7-0.1c1,0.1,1.5,0.5,1.6,1.3c0,0.2-0.1,0.6-0.2,1.1
		c-0.2,0.3-0.2,0.6-0.2,0.7c-0.7,3.4-2.3,5-4.8,4.9c-1.7-0.2-3-0.6-3.8-1.5c-0.7-1-0.7-1.5,0-1.5c0.2,0,0.6,0.1,1,0.2
		c2,0.6,3.4,0.4,4-0.6l0.1-0.1c0.5-0.8,0.7-1.5,0.7-2.1c0-0.3-0.3-0.6-0.9-0.9c-0.7-0.2-1.7-0.2-2.9-0.2c-0.3-0.1-0.6,0.1-0.9,0.5
		l-0.2,0.4c-0.1,0.2-0.2,0.4-0.2,0.6c-2.1,3.3-5.4,5.1-9.9,5.4c-1.6,0.2-2.6-0.4-2.9-1.6c-0.2-0.5-0.1-0.7,0.2-0.7
		c0.7,0.1,1.7,0,3-0.1c-1,0.2-0.9,0.2,0.1,0c3.2-0.2,5.6-1.5,7.2-3.7c0.1-0.2,0.1-0.4,0.1-0.5c-0.1-0.1-0.2-0.1-0.5-0.1
		c-0.4,0-1.1,0.1-1.9,0.4c-0.8,0.2-1.5,0.3-2,0.4c-0.7-0.1-0.8-0.5-0.5-1.3c0.5-0.6,1-1,1.6-1c0.1,0,0.2,0,0.4,0.1
		c0.4,0.1,0.7,0.1,0.9,0c0.3-0.1,0.8-0.1,1.3,0c0.5,0,0.9,0,1.1,0c0.3-0.1,0.5-0.4,0.5-1.1c0-0.2,0.1-0.4,0.2-0.6l0.1-0.2
		C53,13,52.9,13,52.8,13z M46.6,8.1c-0.5-0.2-1-0.4-1.6-0.6c-0.7-0.3-1-0.8-1-1.3c0.2-0.9,0.6-1.3,1.3-1.3c0.6,0,1.1,0.6,1.2,1.7
		c0,0.1,0,0.2,0.1,0.2C46.9,7,47,7.2,47.1,7.4C47.3,7.8,47.1,8,46.6,8.1z M45.4,11.7c0.5,0.2,0.8,0.4,1,0.4c2.2-0.3,4.4-0.5,6.7-0.5
		c0.4,0,1,0,1.8,0c3.3-0.1,5.8,0,7.6,0.2c0.6,0.2,1.1,0.1,1.5-0.2c-1-1.1-2.1-2-3.3-2.7l-0.1-0.1c-0.3-0.2-0.6-0.2-0.7,0
		c0,0.1,0,0.2-0.1,0.2c-0.6,0.9-1.1,1.5-1.7,1.7c-1.5,0.7-2.8,0.7-3.7-0.1c-0.3,0.5-0.7,0.7-1.2,0.6c-0.7,0-1.7-0.4-3-1.2
		c-0.5-0.6-1.1-0.4-2,0.4c-0.3,0.2-1.1,0.6-2.2,1.1C46.8,11,46.7,11.1,45.4,11.7z M51.9,5.9c0.3-0.6,0.9-0.9,1.6-0.6
		c0.6,0.4,0.7,0.9,0.2,1.5C53,7.6,52.2,8,51.5,8.1C51.1,8,51,7.8,51.2,7.5c0.2-0.3,0.4-0.8,0.6-1.3C51.8,6.3,51.9,6.2,51.9,5.9z
		 M56.2,7.9c-0.7-0.2-1.2-0.5-1.6-1.1c-0.2-1,0.1-1.5,1-1.6c0.9,0.2,1.5,1.1,1.7,2.7C57.3,8.1,56.9,8.1,56.2,7.9z M61.6,6.8
		c0.1-0.1,0.2-0.2,0.5-0.5c0.2-0.1,0.4-0.4,0.6-1.1c0.3-0.5,0.7-0.7,1.2-0.7c1,0.2,1.2,0.8,0.7,1.7c-0.9,0.8-1.7,1.2-2.6,1.1
		c-0.2,0-0.4,0-0.6-0.1C61.4,7.1,61.4,6.9,61.6,6.8z"/>
	<path d="M90.9,7.1c0.2-1,0.2-1.9,0.1-2.7c0.6-0.9,1.5-0.6,2.7,0.7c0.3,0.6,0.2,1.6-0.2,3c0.2,0.1,1.1,0.1,2.7,0.1
		c1.5-0.2,2.2,0.1,2.3,0.9c0.2,0.5,0.2,1.3-0.2,2.4c-0.1,0.5-0.2,1.5-0.5,2.9c-0.2,1.5-0.4,2.5-0.6,3c-0.7,3.2-2.2,4.9-4.5,5
		c-1.7,0-2.9-0.8-3.7-2.4c-1.1,1.7-2.4,2.6-3.9,2.7c-1.4,0.1-2.2-0.2-2.4-0.7c-0.2-0.2-0.4-0.4-0.4-0.5c0.1-0.2,0.2-0.3,0.5-0.4
		c1.1-0.5,2.1-1.2,3-2.1c-0.2,0-0.2,0-0.2,0.1c-6.3,1.1-10.5,2-12.6,2.9c-0.6,0.3-1,0.3-1.2-0.1c-0.2-0.4-0.2-0.9,0.2-1.5
		c0.8-1.1,1.4-1.5,1.8-1.3c0.3,0,0.8,0,1.3-0.1c0.4-0.1,1-0.2,1.8-0.2c0.7-0.2,1.3-0.2,1.6-0.2c0.1-0.2,0.1-0.5,0.1-0.7
		c0-0.4-0.1-0.6-0.4-0.6c-1.5,0-2.7,0.2-3.8,0.5c-0.5,0-0.6-0.3-0.4-0.9c0.6-0.7,1.1-1.1,1.7-1c0.7,0.1,1.5,0.1,2.3,0.1
		c0.3,0,0.5-0.2,0.5-0.6c0-0.2-0.2-0.4-0.5-0.4c-0.9,0-1.6,0.1-2.1,0.2c-1.1,0.2-1.6-0.2-1.7-1.1c-0.1-0.6-0.2-1.5-0.2-2.7
		c0-1.1,0.5-1.5,1.5-1.5c0.8,0.1,1.7,0.1,2.7,0c0.5-0.3,0.5-0.6,0-1c-1.4-0.1-2.5,0-3.3,0.4c-1.9,0.4-2.7,0.3-2.6-0.2
		c0.2-0.8,0.9-1.3,2.2-1.3h3.5c0.2,0,0.4-0.1,0.5-0.4c-0.1-0.2-0.2-0.4-0.5-0.4c-2,0-3.3-0.1-3.9-0.4c-0.3-0.3,0-0.5,0.9-0.5
		c2.8,0.2,5.5-0.6,8-2.2c0.8-0.6,1.5-0.5,2.2,0.2c0.5,0.4,0.7,0.8,0.7,1.1c-0.1,0.2-0.4,0.4-1,0.6c-0.2,0-0.4,0.1-0.7,0.2
		C83,6.7,82.1,6.9,81.7,7c-0.2,0-0.4,0.2-0.5,0.5c0,0.3,0.1,0.5,0.4,0.5c1.9,0,3.2,0,4.1,0c0.5,0,0.8,0.2,0.9,0.6
		c0,0.4-0.2,0.6-0.7,0.6h-4.1c-0.5,0.3-0.5,0.7,0,1c1.2,0.1,2,0.1,2.4,0c1.4-0.4,2.1,0.1,2.1,1.6c0,0.5-0.1,1-0.2,1.5
		c0,0.3,0,0.6-0.1,0.7c-0.2,1.2-0.9,1.6-2.1,1.2c-0.1,0-0.2,0-0.5,0c-0.6-0.1-1.1-0.1-1.5-0.1c-0.3,0-0.5,0.2-0.5,0.5
		c0,0.2,0.2,0.4,0.5,0.4h3.8c0.3,0,0.5,0.2,0.6,0.6c0,0.2-0.2,0.4-0.6,0.4c-0.1,0-0.6,0-1.6,0.1c-1.3,0.1-2,0.1-2.2,0.1
		c-0.2,0.1-0.4,0.4-0.5,0.9v0.4c0.5-0.1,1.2-0.2,2.2-0.2c0.9-0.1,1.6-0.1,2.1-0.1c0.6-0.1,0.9,0,1,0.4c1.6-1.9,2.9-4.5,3.8-7.7
		c0.2-0.6-0.1-1-0.7-1c-0.1,0-0.2,0-0.2,0c-0.6,0.1-1.1,0.2-1.5,0.4c-0.6,0.1-1,0-1.2-0.1c-0.2-0.2-0.2-0.6,0-1
		c0.7-1.1,1.5-1.6,2.3-1.3C89.6,8,90,8.1,90.2,8C90.6,8.1,90.9,7.8,90.9,7.1z M77.2,12.3c0.5,0,0.9,0,1.3,0c0.2,0,0.4-0.2,0.4-0.5
		c0-0.3-0.2-0.5-0.5-0.5c-0.5,0-0.9,0-1.1,0c-0.3,0-0.5,0.2-0.5,0.5C76.8,12.1,76.9,12.3,77.2,12.3z M77.2,14.2
		c0.2-0.1,0.6-0.1,1.1,0c0.2,0,0.3,0,0.4,0c0.2,0,0.2-0.2,0.2-0.5c0-0.3-0.1-0.5-0.4-0.5h-1.3c-0.2-0.1-0.4,0.1-0.4,0.6
		C76.8,14.1,76.9,14.2,77.2,14.2z M81.4,12.3H83c0.3,0,0.5-0.2,0.5-0.5c0.1-0.3-0.1-0.5-0.6-0.5h-1.5c-0.2,0-0.4,0.1-0.4,0.4
		C81.1,12.1,81.2,12.3,81.4,12.3z M81.7,13.2c-0.3,0-0.5,0.2-0.5,0.5c0,0.3,0.2,0.5,0.5,0.5c0.5-0.1,0.9-0.1,1.3-0.1
		c0.3,0,0.5-0.1,0.5-0.4c0-0.3-0.1-0.5-0.4-0.5C82.6,13.2,82.1,13.2,81.7,13.2z M92.6,10.9c-1,3.7-2.1,6.6-3.3,8.7h0.1
		c1.6,0.6,2.9,0.5,3.9-0.2c1.1-1.4,1.8-4.1,2-8c0.1-0.8-0.4-1.3-1.6-1.3C93.2,9.9,92.8,10.2,92.6,10.9z"/>
	<path d="M108.2,6.9c0.5,0.2,0.9,0.4,1.3,0.4c0.2,0,0.5,0,0.9,0c0.3,0,0.5-0.2,0.5-0.5c0-0.4,0-0.8,0-1.2c0.1-0.7,0.7-1,1.8-0.9
		c0.9,0.2,1.3,0.8,1.3,1.6c-0.1,0.6,0.1,0.8,0.6,0.7c0.1,0,1,0.1,2.8,0.2c0.4,0.1,0.6,0.3,0.5,0.7c-0.1,0.5-0.3,0.7-0.7,0.7
		c-0.5,0-1,0-1.5,0c0.4,1.1,0.3,1.9-0.2,2.3c-0.1,0.1-0.2,0.2-0.4,0.5c-0.3,0.4-0.5,0.7-0.6,0.9c1.3,0,2.4,0,3.4,0
		c0.7,0.4,0.6,0.9-0.2,1.5c-3.4,0-5.9,0.1-7.6,0.2c-1.7,0.2-3.5,0.5-5.5,1.1c-0.8,0.2-1.4,0.1-1.7-0.2c-0.2-0.3-0.2-0.8,0.1-1.3
		c0.7-1,1.6-1.4,2.7-1.2c0.4,0.2,0.8,0.2,1.1,0.2c0.8,0,1.7-0.1,2.8-0.2c-1.4-1.3-1.6-2.4-0.7-3.4c-0.1,0-0.4,0-0.9,0.1
		c-1.1,0.2-1.7,0-1.8-0.9C106.5,7.1,107.2,6.7,108.2,6.9z M107.4,21c0-0.6-0.1-1.9-0.2-3.9c-0.1-0.4-0.1-0.7-0.1-0.9
		c0.2-1.2,1-1.6,2.4-1.2c0.1,0,0.2,0,0.2,0.1c0.2,0.1,0.4,0.1,0.6,0.1c0.6,0,1.5,0,2.7,0.1c0.4,0.1,0.7,0.1,1,0.1
		c0.3,0,0.6-0.1,0.9-0.2c1.4-0.9,2.3-0.6,2.7,0.7c0,1.1-0.1,2.8-0.2,4.9c-0.6,1.5-1.6,1.6-3.2,0.5c-1.2,0-2.2,0-3,0
		c-0.3-0.1-0.6,0-0.9,0.4C108.7,22.8,107.7,22.6,107.4,21z M113.6,19.9c0.6,0,1-0.3,1-1v-1.2c0-0.6-0.3-1-1-1c-0.7,0-1.7,0-2.9,0
		c-0.7,0-1,0.3-1,1c0,0.3,0,0.7,0,1.2c0,0.7,0.4,1,1.2,1C111.8,19.9,112.7,19.9,113.6,19.9z M110,8.7c0.5,0.3,0.8,0.8,0.9,1.3
		c0.2,1.7,0.7,2.5,1.3,2.3c0.5,0.1,0.8-0.2,1-0.7c0.6-1.2,0.9-2.2,0.7-2.9H110z M120.2,5.8c0.5,0.1,1,0.4,1.5,1c1.5,0,2.9,0,4.1,0
		c1.3-1.1,2.3-1,3,0.2c0.7,1.7,0.2,3.2-1.6,4.4c-1.2,0.8-2.3,1.3-3.2,1.5c4.8,0.4,7.1,1.8,7.1,4.1c-0.2,2.4-1.9,3.9-5.1,4.4
		c-1.6,0.2-3.2-0.2-4.6-1c0,0.1,0,0.3,0.1,0.6c0,0.3,0,0.6,0,0.7c0.2,1.1-0.2,1.9-1,2.3c-1.1,0.2-1.7-0.2-1.8-1.2
		c0.1-6.3,0.2-10.9,0.2-13.9C118.4,7.1,118.8,6,120.2,5.8z M125.1,19.3c1.6-0.3,2.5-1.1,2.6-2.2c-0.1-1.1-1-1.9-2.7-2.4
		c-1.8-0.6-3-0.6-3.5-0.2c0,1.4,0,2.9,0,4.5C122.3,19.5,123.5,19.7,125.1,19.3z M122.4,12.3c0.7-0.4,1.5-0.9,2.2-1.5
		c1.1-1.3,1.2-2.2,0.2-2.8c-0.6,0-1.3,0-2.2,0c-0.7,0-1,0.3-1,1c-0.1,0.9-0.1,1.8-0.1,2.8c-0.1,0.3,0,0.5,0.1,0.6
		C121.7,12.5,122,12.4,122.4,12.3z"/>
</g>
</svg>
