<svg width="1200" height="758" viewBox="0 0 1200 758" fill="none" xmlns="http://www.w3.org/2000/svg">
<g clip-path="url(#clip0)">
<path opacity="0.7" d="M566.844 760.37C264.808 725.296 4.26223 587.136 -156.042 362.772" stroke="#004EA2" stroke-width="0.25" stroke-miterlimit="10" stroke-linecap="round"/>
<g opacity="0.5">
<path opacity="0.5" d="M1199.87 224.6C940.887 465.436 585.937 613.969 194.364 613.969C128.469 613.969 63.6034 609.757 0.0680692 601.614" stroke="#004EA2" stroke-width="0.25" stroke-miterlimit="10"/>
<path opacity="0.5" d="M1199.87 253.61C942.017 484.203 593.758 625.793 210.586 625.793C139.04 625.793 68.7239 620.751 0.0582033 611.028" stroke="#004EA2" stroke-width="0.2778" stroke-miterlimit="10"/>
<path opacity="0.5" d="M1199.87 282.621C943.147 502.979 601.578 637.627 226.817 637.627C149.611 637.627 73.8645 631.745 0.058348 620.451" stroke="#004EA2" stroke-width="0.3056" stroke-miterlimit="10"/>
<path opacity="0.5" d="M1199.87 311.631C944.277 521.756 609.409 649.461 243.049 649.461C160.192 649.461 78.9949 642.739 0.0583497 629.864" stroke="#004EA2" stroke-width="0.3333" stroke-miterlimit="10"/>
<path opacity="0.5" d="M1199.87 340.641C945.407 540.523 617.23 661.286 259.27 661.286C170.762 661.286 84.1253 653.723 0.0583515 639.278" stroke="#004EA2" stroke-width="0.3611" stroke-miterlimit="10"/>
<path opacity="0.5" d="M1199.87 369.662C946.537 559.309 625.05 673.12 275.501 673.12C181.343 673.12 89.2555 664.717 0.0580671 648.701" stroke="#004EA2" stroke-width="0.3889" stroke-miterlimit="10"/>
<path opacity="0.5" d="M1199.87 398.672C947.667 578.086 632.871 684.954 291.722 684.954C191.914 684.954 94.3761 675.721 0.0482013 658.114" stroke="#004EA2" stroke-width="0.4167" stroke-miterlimit="10"/>
<path opacity="0.5" d="M1199.87 427.682C948.797 596.853 640.692 696.788 307.954 696.788C202.495 696.788 99.5164 686.715 0.04806 667.538" stroke="#004EA2" stroke-width="0.4444" stroke-miterlimit="10"/>
<path opacity="0.5" d="M1199.87 456.693C949.927 615.629 648.512 708.622 324.185 708.622C213.076 708.622 104.647 697.709 0.0579293 676.961" stroke="#004EA2" stroke-width="0.4722" stroke-miterlimit="10"/>
<path opacity="0.5" d="M1199.87 485.703C951.057 634.406 656.343 720.447 340.406 720.447C223.637 720.447 109.767 708.692 0.0480634 686.364" stroke="#004EA2" stroke-width="0.5" stroke-miterlimit="10"/>
</g>
</g>
<defs>
<clipPath id="clip0">
<rect width="1200" height="758" fill="white" transform="matrix(-1 -8.74228e-08 -8.74228e-08 1 1200 0.00012207)"/>
</clipPath>
</defs>
</svg>
